<?xml version="1.0" encoding="UTF-8"?>
<svg xmlns="http://www.w3.org/2000/svg" xmlns:xlink="http://www.w3.org/1999/xlink" width="18pt" height="18pt" viewBox="0 0 18 18" version="1.1">
<g id="surface1">
<path style=" stroke:none;fill-rule:nonzero;fill:rgb(100%,100%,100%);fill-opacity:1;" d="M 17.128906 7.890625 L 11.964844 2.859375 C 11.648438 2.558594 11.132812 2.558594 10.820312 2.859375 C 10.503906 3.164062 10.503906 3.664062 10.820312 3.972656 L 14.609375 7.65625 L 0.804688 7.65625 C 0.363281 7.65625 0 8.003906 0 8.441406 C 0 8.875 0.363281 9.222656 0.804688 9.222656 L 14.609375 9.222656 L 10.820312 12.910156 C 10.503906 13.21875 10.503906 13.710938 10.820312 14.019531 C 10.976562 14.175781 11.1875 14.25 11.386719 14.25 C 11.597656 14.25 11.804688 14.175781 11.964844 14.019531 L 17.128906 9 C 17.445312 8.691406 17.445312 8.191406 17.128906 7.890625 Z M 17.128906 7.890625 "/>
</g>
</svg>
