<?xml version="1.0" encoding="UTF-8"?>
<svg xmlns="http://www.w3.org/2000/svg" xmlns:xlink="http://www.w3.org/1999/xlink" width="13pt" height="13pt" viewBox="0 0 13 13" version="1.1">
<g id="surface1">
<path style=" stroke:none;fill-rule:nonzero;fill:rgb(95.686275%,26.27451%,21.176471%);fill-opacity:1;" d="M 3.59375 0.0820312 C 3.480469 -0.0273438 3.304688 -0.0234375 3.195312 0.0898438 C 3.089844 0.199219 3.089844 0.371094 3.195312 0.480469 L 9.210938 6.5 L 3.195312 12.515625 C 3.082031 12.621094 3.078125 12.800781 3.1875 12.914062 C 3.296875 13.027344 3.472656 13.027344 3.585938 12.921875 C 3.589844 12.917969 3.589844 12.917969 3.59375 12.914062 L 9.808594 6.699219 C 9.917969 6.585938 9.917969 6.410156 9.808594 6.296875 Z M 3.59375 0.0820312 "/>
<path style=" stroke:none;fill-rule:nonzero;fill:rgb(0%,0%,0%);fill-opacity:1;" d="M 3.394531 12.996094 C 3.238281 12.996094 3.109375 12.871094 3.109375 12.714844 C 3.109375 12.640625 3.140625 12.566406 3.195312 12.515625 L 9.210938 6.5 L 3.195312 0.484375 C 3.082031 0.371094 3.082031 0.191406 3.195312 0.0820312 C 3.304688 -0.0273438 3.484375 -0.0273438 3.59375 0.0820312 L 9.808594 6.296875 C 9.921875 6.410156 9.921875 6.585938 9.808594 6.699219 L 3.59375 12.914062 C 3.539062 12.96875 3.46875 12.996094 3.394531 12.996094 Z M 3.394531 12.996094 "/>
</g>
</svg>
